HIERARCHY
ROOT Hips
{
	OFFSET 0.000000 8.830580 0.000000
	CHANNELS 6 Xposition Yposition Zposition Zrotation Yrotation Xrotation 
	JOINT Spine
	{
		OFFSET 0.000000 0.010000 0.000000
		CHANNELS 3 Zrotation Yrotation Xrotation
		JOINT Spine1
		{
			OFFSET 0.000000 2.459130 0.000000
			CHANNELS 3 Zrotation Yrotation Xrotation
			JOINT Neck
			{
				OFFSET 0.000000 2.484630 0.000000
				CHANNELS 3 Zrotation Yrotation Xrotation
				JOINT Head_virtual
				{
					OFFSET 0.000000 0.000000 0.000000
					CHANNELS 3 Zrotation Yrotation Xrotation
					JOINT Head
					{
						OFFSET 0.000000 0.927525 0.000000
						CHANNELS 3 Zrotation Yrotation Xrotation
						End Site
						{
							OFFSET 0.000000 0.000000 0.000000
						}
					}
				}
				JOINT LeftUpArm_virtual
				{
					OFFSET 0.000000 0.000000 0.000000
					CHANNELS 3 Zrotation Yrotation Xrotation
					JOINT LeftUpArm
					{
						OFFSET 1.248820 0.000000 0.000000
						CHANNELS 3 Zrotation Yrotation Xrotation
						JOINT LeftForeArm
						{
							OFFSET 2.597580 0.000000 0.000000
							CHANNELS 3 Zrotation Yrotation Xrotation
							JOINT LeftHand
							{
								OFFSET 2.455420 0.000000 0.000000
								CHANNELS 3 Zrotation Yrotation Xrotation
								End Site
								{
									OFFSET 0.000000 0.000000 0.000000
								}
							}
						}
					}
				}
				JOINT RightUpArm_virtual
				{
					OFFSET -0.000000 -0.000000 -0.000000
					CHANNELS 3 Zrotation Yrotation Xrotation
					JOINT RightUpArm
					{
						OFFSET -1.248820 -0.000000 -0.000000
						CHANNELS 3 Zrotation Yrotation Xrotation
						JOINT RightForeArm
						{
							OFFSET -2.597580 -0.000000 -0.000000
							CHANNELS 3 Zrotation Yrotation Xrotation
							JOINT RightHand
							{
								OFFSET -2.455420 -0.000000 -0.000000
								CHANNELS 3 Zrotation Yrotation Xrotation
								End Site
								{
									OFFSET 0.000000 0.000000 0.000000
								}
							}
						}
					}
				}
			}
		}
	}
	JOINT LeftUpLeg
	{
		OFFSET 1.271939 0.000000 0.000000
		CHANNELS 3 Zrotation Yrotation Xrotation
		JOINT LeftLowLeg
		{
			OFFSET 0.000000 -4.342910 0.000000
			CHANNELS 3 Zrotation Yrotation Xrotation
			JOINT LeftFoot
			{
				OFFSET 0.000000 -4.487670 0.000000
				CHANNELS 3 Zrotation Yrotation Xrotation
				JOINT LeftToeBase
				{
					OFFSET 0.000000 0.000000 1.515070
					CHANNELS 3 Zrotation Yrotation Xrotation
					End Site
					{
						OFFSET 0.000000 0.000000 0.000000
					}
				}
			}
		}
	}
	JOINT RightUpLeg
	{
		OFFSET -1.271939 0.000000 0.000000
		CHANNELS 3 Zrotation Yrotation Xrotation
		JOINT RightLowLeg
		{
			OFFSET 0.000000 -4.342910 0.000000
			CHANNELS 3 Zrotation Yrotation Xrotation
			JOINT RightFoot
			{
				OFFSET 0.000000 -4.487670 0.000000
				CHANNELS 3 Zrotation Yrotation Xrotation
				JOINT RightToeBase
				{
					OFFSET 0.000000 0.000000 1.515070
					CHANNELS 3 Zrotation Yrotation Xrotation
					End Site
					{
						OFFSET 0.000000 0.000000 0.000000
					}
				}
			}
		}
	}
}
MOTION
Frames: 8
Frame Time: 0.041667
-12.250289 8.856320 35.048655 179.747741 -11.679690 -173.886127 2.060927 -3.885494 -15.289298 4.141231 -0.648985 14.983384 0.000000 0.000000 0.000000 -7.448219 8.831649 6.224854 -2.573225 -11.587671 -94.568304 -13.666600 3.615220 -3.778992 16.434500 -45.981098 -3.923340 180.000000 -82.617996 -180.000000 33.463799 14.580000 35.966801 23.118601 -9.708630 -1.877991 31.320400 4.501870 14.436005 -180.000000 64.952003 -180.000000 19.599001 -19.462500 16.889700 4.250503 -5.638231 -24.244876 0.000000 0.000000 19.362600 -22.412510 8.259743 3.340894 0.000000 0.000000 -22.415480 8.318387 5.271275 -8.061157 0.000000 0.000000 19.996700 25.849150 -11.238232 -13.674958 0.000000 0.000000 -16.676660 
-12.271299 8.860334 35.037077 179.742326 -12.197992 -173.331859 1.694631 -4.230977 -15.228002 4.498219 -0.577573 14.669362 0.000000 0.000000 0.000000 -8.928739 9.229357 6.950938 -1.561860 -12.431148 -94.589854 -13.531400 4.047670 -4.670990 19.107800 -48.383598 -10.759500 180.000000 -78.580002 -180.000000 35.930698 13.758800 36.901501 23.037001 -9.622960 -1.464996 31.224501 5.164790 14.510010 -180.000000 64.745003 180.000000 19.939199 -19.826000 16.812799 4.065593 -5.579171 -24.638726 0.000000 0.000000 18.981300 -21.975246 8.128071 3.862762 0.000000 0.000000 -22.589640 8.217800 4.657052 -8.362093 0.000000 0.000000 19.696699 25.963025 -11.062025 -13.618467 0.000000 0.000000 -16.687310 
-12.291948 8.865059 35.021086 179.743247 -12.317294 -172.753256 1.317651 -4.501286 -15.215963 4.821322 -0.443937 14.395841 0.000000 0.000000 0.000000 -9.855398 9.482849 7.796183 -0.954720 -12.954104 -94.800192 -13.332700 4.703970 -5.341003 22.381300 -50.401600 -19.195601 180.000000 -75.632004 -180.000000 39.029999 13.321100 34.749802 23.239401 -9.538360 -0.890015 30.891800 6.112400 14.511993 -180.000000 64.591003 -180.000000 19.848801 -20.079300 16.597099 3.837714 -5.169873 -24.840151 0.000000 0.000000 18.399799 -21.348287 8.015184 4.327352 0.000000 0.000000 -22.601260 8.086191 4.491477 -8.671825 0.000000 0.000000 19.417801 26.038624 -10.946684 -13.521575 0.000000 0.000000 -16.718830 
-12.313698 8.868162 35.002634 179.739714 -12.017756 -172.193077 0.891056 -4.666774 -15.222583 5.063070 -0.218936 14.222206 0.000000 0.000000 0.000000 -10.315826 9.787018 8.407917 -0.542427 -13.098131 -94.984246 -13.392300 6.083550 -4.800995 28.440800 -52.207298 -30.917000 -180.000000 -74.723000 180.000000 42.736198 11.610300 32.047798 23.308500 -9.050780 -1.006012 30.959700 6.260980 14.967010 180.000000 64.435997 180.000000 19.830200 -20.110201 16.490101 3.597502 -4.569286 -24.858540 0.000000 0.000000 17.707500 -20.703409 8.077945 4.633474 0.000000 0.000000 -22.572700 7.901196 4.582361 -8.941625 0.000000 0.000000 19.117701 26.065072 -10.707059 -13.402371 0.000000 0.000000 -16.700840 
-12.338110 8.871543 34.983154 179.767591 -11.372010 -171.790624 0.540802 -4.698888 -15.022274 5.406304 0.093187 14.046319 0.000000 0.000000 0.000000 -10.863115 10.131182 8.769373 0.127917 -13.319694 -95.220017 -13.592300 6.926720 -5.147003 33.163101 -52.921902 -41.017601 180.000000 -74.514999 -180.000000 46.581001 9.558810 30.882099 23.381201 -8.743510 -0.765991 31.056801 6.820130 15.164001 180.000000 64.264000 180.000000 19.720501 -20.209801 15.954400 3.396307 -3.969693 -24.690081 0.000000 0.000000 17.087999 -20.129877 8.404388 4.787429 0.000000 0.000000 -22.570220 7.685167 5.055172 -9.128880 0.000000 0.000000 18.955000 26.096603 -10.515187 -13.264010 0.000000 0.000000 -16.710280 
-12.365715 8.874064 34.962378 179.802110 -10.531507 -171.480784 0.296376 -4.515168 -14.775595 5.489399 0.449991 13.937038 0.000000 0.000000 0.000000 -10.853867 10.253273 8.861845 0.494243 -13.262898 -95.425576 -13.625400 7.880460 -5.181000 37.375500 -53.130501 -51.556900 180.000000 -74.384003 -180.000000 46.508099 10.189000 33.650101 23.580299 -8.437720 -0.411987 31.296700 7.280480 15.088013 180.000000 64.130997 -180.000000 19.615499 -20.069500 15.325700 3.318218 -3.763351 -24.459888 0.000000 0.000000 16.617500 -19.525231 9.162449 4.689566 0.000000 0.000000 -22.510590 7.436718 5.603098 -9.250000 0.000000 0.000000 18.851500 26.149654 -10.218470 -13.133046 0.000000 0.000000 -16.714560 
-12.397362 8.877104 34.938088 179.762632 -9.624563 -171.136000 0.060518 -4.325651 -14.701117 5.575276 0.784661 13.972837 0.000000 0.000000 0.000000 -10.791359 10.282492 8.781378 0.923703 -13.248778 -95.727397 -14.083800 8.549300 -5.217987 41.382099 -52.644501 -60.890099 180.000000 -75.400002 -180.000000 48.584900 10.065800 31.229000 23.713600 -8.073270 -0.121002 31.751801 7.616290 15.020996 180.000000 64.059998 180.000000 19.389700 -19.935699 15.008800 3.231845 -3.861502 -24.314156 0.000000 0.000000 16.348600 -19.105718 10.114914 4.393010 0.000000 0.000000 -22.274780 7.083845 6.262167 -9.418787 0.000000 0.000000 18.839899 26.360890 -9.907374 -13.101478 0.000000 0.000000 -16.697050 
-12.434308 8.880288 34.912358 179.686185 -8.686902 -170.802567 -0.078829 -4.047256 -14.659775 5.538642 1.093012 14.082515 0.000000 0.000000 0.000000 -10.272412 10.132529 8.843186 0.889397 -12.951284 -95.787041 -14.363900 8.966380 -5.756989 43.237202 -52.023499 -68.254501 180.000000 -76.334999 -180.000000 48.271500 10.699700 32.067101 23.931400 -7.760630 0.226990 32.238701 7.927580 14.812012 -180.000000 64.012001 -180.000000 19.247499 -19.809099 14.724400 3.199556 -4.402838 -24.295003 0.000000 0.000000 16.402500 -18.604443 11.453561 3.926920 0.000000 0.000000 -22.096750 6.659920 6.891380 -9.618301 0.000000 0.000000 18.933399 26.515519 -9.586919 -13.105014 0.000000 0.000000 -16.667420 
